Simulation
nRows=28
nColumns=15
endheader
time  TH_x TH_y TH_z SC_y  SC_z  SC_x  AC_y  AC_z  AC_x  GH_y  GH_z  GH_yy  EL_x  PS_y
0.75  0.000000  0.000000  0.000000  -29.284627477705925  1.004646450200391  21.788098896830324  53.68637829055937  1.7762749071977122  -10.939788334836917  20.54281048091902  33.229418040348435  -17.41548561821699  19.9360011492863  0.000000
0.765  0.000000  0.000000  0.000000  -29.439108209678626  1.1028741532142716  22.018904607374296  53.82053683649758  2.1373200086056787  -10.858903744369599  20.620816504656577  33.733503253002844  -17.751065648513297  19.73075492657294  0.000000
0.78  0.000000  0.000000  0.000000  -29.600591514988814  1.2037786667646668  22.25292476213225  53.94954603195578  2.4969049686740847  -10.772597669309484  20.70607660942431  34.22297955928521  -18.086082756782147  19.52433918750335  0.000000
0.7949999999999999  0.000000  0.000000  0.000000  -29.76853111637627  1.3073875848722587  22.489982776130166  54.07279506659933  2.8545519782133146  -10.68104600771819  20.797876363566957  34.69789667969388  -18.420601956067767  19.31706746968563  0.000000
0.8099999999999999  0.000000  0.000000  0.000000  -29.9424366198598  1.4137301865154985  22.72993469333621  54.18946730632226  3.20961995910997  -10.584483585905955  20.895760890353245  35.15843049891607  -18.754635205255173  19.109410322350115  0.000000
0.825  0.000000  0.000000  0.000000  -30.121841104157898  1.5228121015927034  22.972589222528818  54.29890531202628  3.5615584609775928  -10.483056430138868  20.999076391307153  35.60461740715885  -19.087990081343552  18.901900806849003  0.000000
0.84  0.000000  0.000000  0.000000  -30.3061521357812  1.6345881493114933  23.21770223621702  54.400382956702096  3.909790873189549  -10.37716332371658  21.10737366901807  36.036679539225744  -19.4204098144745  18.6950929376072  0.000000
0.855  0.000000  0.000000  0.000000  -30.494718796223307  1.7489371117264287  23.46499618704478  54.493281421658494  4.253908580554798  -10.26704185797074  21.219890731628638  36.45462761722748  -19.751414958024615  18.489608703812458  0.000000
0.87  0.000000  0.000000  0.000000  -30.686796280939294  1.8656824805089431  23.714146747751073  54.57708864400794  4.59340861569705  -10.153174696601946  21.33596436864755  36.85869832666359  -20.08063585500934  18.28603314931274  0.000000
0.885  0.000000  0.000000  0.000000  -30.881652880598832  1.984576056934306  23.964822655697137  54.651376083700846  4.92796697554353  -10.035845009322681  21.45470789847496  37.24887335288489  -20.407386091762437  18.08502641085395  0.000000
0.8999999999999999  0.000000  0.000000  0.000000  -31.078457008691323  2.1053336749217033  24.216619248791154  54.715807400976125  5.257129675475792  -9.91560777373455  21.575352617770164  37.625404774248054  -20.7311044418836  17.887217078340235  0.000000
0.9149999999999999  0.000000  0.000000  0.000000  -31.276417491124782  2.227602040802251  24.469144336735553  54.77014950543308  5.580622786030563  -9.792796260382106  21.696941513730707  37.98823642984063  -21.0509141188362  17.693296392403994  0.000000
0.9299999999999999  0.000000  0.000000  0.000000  -31.474646259029274  2.3510072386080556  24.721903699435295  54.8142473534471  5.897995081810694  -9.668009634801038  21.818645595998774  38.33762583436829  -21.366085612657404  17.503920650691036  0.000000
0.945  0.000000  0.000000  0.000000  -31.67233085016308  2.475108919310667  24.974449760157615  54.84810810932068  6.208960729171779  -9.541615906418366  21.939479017863786  38.67346568123712  -21.675603086817727  17.31979646611523  0.000000
0.96  0.000000  0.000000  0.000000  -31.868577830064474  2.5994672262084397  25.22620399182785  54.87178392835168  6.512999728854531  -9.414224455082246  22.058614300510097  38.99601174838052  -21.97859292754041  17.141608536601584  0.000000
0.975  0.000000  0.000000  0.000000  -32.062609897396115  2.723589750953834  25.476669195499902  54.88557194716166  6.809744447141056  -9.286209631067273  22.175111761464894  39.305095940775985  -22.273942647580867  16.970071509646992  0.000000
0.99  0.000000  0.000000  0.000000  -32.25346888501772  2.847034299879723  25.725163658515367  54.88971628458083  7.0985690589614805  -9.158155838226744  22.288182818349746  39.60094450844309  -22.56069191434075  16.80582921011803  0.000000
1.005  0.000000  0.000000  0.000000  -32.440367964309395  2.969320728300789  25.97123154156029  54.88471107980505  7.378937945414299  -9.030442013108313  22.396990731851005  39.883275907463705  -22.837646442195418  16.64957517350282  0.000000
1.02  0.000000  0.000000  0.000000  -32.622621098807244  3.090183903216233  26.21421575737329  54.87104767567413  7.649811232413572  -8.90359200466193  22.50097162008991  40.15235682483916  -23.103797602947072  16.50206580156017  0.000000
1.035  0.000000  0.000000  0.000000  -32.799613952094994  3.2094369111626295  26.45344714917306  54.84944752718026  7.9104398346089555  -8.77774889975637  22.599491041992888  40.40787664305929  -23.357961492430146  16.363928328225562  0.000000
1.05  0.000000  0.000000  0.000000  -32.9702060903695  3.3265030451928173  26.687836322006792  54.820458141816644  8.160134090790121  -8.653473164064312  22.691797652647388  40.65030282400296  -23.59933739342629  16.23550296941859  0.000000
1.065  0.000000  0.000000  0.000000  -33.1337835078268  3.440944296654067  26.916889571501464  54.784742323877225  8.398322425512974  -8.531173998224014  22.777149989774056  40.87939815060961  -23.826810830481865  16.117289226507935  0.000000
1.08  0.000000  0.000000  0.000000  -33.290142293310886  3.5527998555684737  27.139861271004293  54.74314713185972  8.624124260126816  -8.411580931369617  22.85480196289225  41.09549706258768  -24.03968480661534  16.010085969717654  0.000000
1.095  0.000000  0.000000  0.000000  -33.43918814422393  3.6613502655805927  27.3563318753618  54.696753360688696  8.837567040201606  -8.295092999493257  22.92378065231613  41.298198774628254  -24.236791712478624  15.914231329980165  0.000000
1.1099999999999999  0.000000  0.000000  0.000000  -33.5803432266209  3.7658840738274337  27.565203302077915  54.64653910542602  9.03849143683733  -8.182557531051  22.983166792752794  41.488196687882365  -24.417751370173715  15.829916048998445  0.000000
1.125  0.000000  0.000000  0.000000  -33.71336962067765  3.8659850033127343  27.765978044897167  54.59348870908834  9.226732454895753  -8.07432808109564  23.032249027627063  41.66531676665498  -24.581783229649663  15.75733956758641  0.000000
1.14  0.000000  0.000000  0.000000  -33.837955050616586  3.961507587429289  27.957772442590663  54.53845473929293  9.401651721974869  -7.970976752316415  23.070587453847324  41.83035629772127  -24.728769994930293  15.696540596814376  0.000000
1.155  0.000000  0.000000  0.000000  -33.954034095566286  4.052264903647248  28.14017374644661  54.482309976617245  9.563071390868485  -7.87270476950955  23.097844530710248  41.98328721258198  -24.85821796277491  15.647747541360193  0.000000
